<?xml version="1.0"?>
<svg xmlns="http://www.w3.org/2000/svg" id="Layer_1" data-name="Layer 1" viewBox="0 0 212.21 106.97">
  <defs>
    <style>.cls-1{fill:#ff4521;}</style>
  </defs>
  <title>Payment Methods2</title>
  <path d="M82,35.15h4.89c3,0,5.26.81,5.26,3.55a3.31,3.31,0,0,1-1.86,3.09v.09a3.24,3.24,0,0,1,2.56,3.35c0,2.92-2.45,4.21-5.54,4.21H82Zm4.74,5.72c1.57,0,2.25-.66,2.25-1.69s-.72-1.53-2.23-1.53H85.23v3.22Zm.3,6.07c1.76,0,2.65-.61,2.65-1.93s-.87-1.75-2.65-1.75H85.23v3.68Z"/>
  <path d="M97.91,35.15h3.88l4.47,14.29h-3.42L102,46H97.61l-.88,3.4H93.44Zm.35,8.37h3L101,42.21c-.4-1.43-.79-3.11-1.16-4.6h-.09c-.35,1.51-.72,3.17-1.12,4.6Z"/>
  <path d="M107.82,35.15h3.3l3.73,7.1,1.4,3.16h.09c-.13-1.52-.4-3.53-.4-5.22v-5H119V49.44H115.7L112,42.32l-1.4-3.11h-.09c.13,1.57.39,3.48.39,5.17v5.06h-3.06Z"/>
  <path d="M122.39,35.15h3.22V41h.08l4.25-5.85h3.55l-4.31,5.7,5.1,8.59h-3.52l-3.49-6-1.66,2.19v3.84h-3.22Z"/>
  <path d="M84.79,60.51H80.87V57.8H92v2.71H88V72.08H84.79Z"/>
  <path d="M94.19,57.8h5.15c3,0,5.5,1.05,5.5,4.44a4.17,4.17,0,0,1-2.55,4.12l3.25,5.72h-3.62l-2.74-5.15H97.41v5.15H94.19Zm4.88,6.57c1.69,0,2.61-.73,2.61-2.13s-.92-1.88-2.61-1.88H97.41v4Z"/>
  <path d="M110.09,57.8H114l4.47,14.28H115l-.87-3.4h-4.36l-.88,3.4h-3.28Zm.36,8.36h3l-.33-1.31c-.39-1.42-.79-3.11-1.16-4.6h-.09c-.35,1.51-.72,3.18-1.11,4.6Z"/>
  <path d="M120,57.8h3.31L127,64.89l1.4,3.16h.09c-.13-1.51-.39-3.53-.39-5.22v-5h3.06V72.08h-3.3L124.16,65l-1.4-3.11h-.09c.13,1.58.4,3.48.4,5.17v5.06H120Z"/>
  <path d="M133.65,70.28l1.84-2.21A5.76,5.76,0,0,0,139,69.56c1.33,0,2-.53,2-1.38S140.2,67,139,66.47l-1.86-.79a4.16,4.16,0,0,1-2.87-3.9c0-2.36,2.1-4.25,5.08-4.25a6.58,6.58,0,0,1,4.6,1.89l-1.64,2a4.65,4.65,0,0,0-3-1.14c-1.12,0-1.82.49-1.82,1.3s1,1.18,2.17,1.68l1.84.75a3.94,3.94,0,0,1,2.83,3.88c0,2.36-2,4.42-5.39,4.42A7.81,7.81,0,0,1,133.65,70.28Z"/>
  <path d="M146.75,57.8h9v2.71H150v3.31h4.95v2.72H150v5.54h-3.22Z"/>
  <path d="M158.23,57.8h8.94v2.71h-5.72v2.87h4.87v2.7h-4.87v3.28h5.94v2.72h-9.16Z"/>
  <path d="M170.24,57.8h5.15c3,0,5.5,1.05,5.5,4.44a4.18,4.18,0,0,1-2.54,4.12l3.24,5.72H178l-2.73-5.15h-1.78v5.15h-3.22Zm4.88,6.57c1.69,0,2.61-.73,2.61-2.13s-.92-1.88-2.61-1.88h-1.66v4Z"/>
  <path d="M182.44,70.28l1.84-2.21a5.79,5.79,0,0,0,3.53,1.49c1.34,0,2-.53,2-1.38S189,67,187.75,66.47l-1.87-.79a4.17,4.17,0,0,1-2.87-3.9c0-2.36,2.11-4.25,5.09-4.25a6.61,6.61,0,0,1,4.6,1.89l-1.65,2a4.62,4.62,0,0,0-3-1.14c-1.12,0-1.82.49-1.82,1.3s.94,1.18,2.17,1.68l1.84.75a3.93,3.93,0,0,1,2.82,3.88c0,2.36-2,4.42-5.39,4.42A7.83,7.83,0,0,1,182.44,70.28Z"/>
  <path class="cls-1" d="M27.47,58.42,19.1,47.75l4.62.75A17.22,17.22,0,0,1,40,34.63,17.23,17.23,0,0,0,29.46,48l4.32-1.53Z"/>
  <path class="cls-1" d="M62.93,48.25l8.36,10.67-4.62-.76A17.21,17.21,0,0,1,50.41,72,17.26,17.26,0,0,0,60.93,58.71l-4.31,1.54Z"/>
  <path class="cls-1" d="M47.68,50.29c-3-1.13-4-1.81-4-2.69,0-1,.94-1.59,2.66-1.6a12.53,12.53,0,0,1,5.35,1.34l1.21-4.72a15.84,15.84,0,0,0-5.2-1.32V38.17H43.49V41.6c-3.69.83-6,3.34-6,6.6,0,4.08,3.53,5.79,6.61,6.82,2.9,1,3.5,1.8,3.5,2.73,0,1.13-1.13,1.81-3,1.81a12.39,12.39,0,0,1-6.11-1.74L37.24,62.7a15.25,15.25,0,0,0,6.07,1.69v3.38h4.22V64.1c3.83-.78,6.29-3.44,6.29-6.85S52,51.81,47.68,50.29Z"/>
</svg>
