<?xml version="1.0"?>
<svg xmlns="http://www.w3.org/2000/svg" id="Layer_1" data-name="Layer 1" viewBox="0 0 169.32 106.97">
  <defs>
    <style>.cls-1{fill:#862165;}</style>
  </defs>
  <title>Payment Methods2</title>
  <path class="cls-1" d="M110.21,41.61l7.2-1.29V68h-7.2Zm10.52,0V68h7.21V40.32ZM100,68h7.21V47.75H100ZM52.34,50.61c-.91-.06-3-.2-3-2.1,0-2.29,3-2.29,4.17-2.29a24.88,24.88,0,0,1,6.45,1.15s1,.36,1.91.73l.08,0V41.85l-.11,0a25.67,25.67,0,0,0-9.44-1.5c-8.12,0-11,4.73-11,8.78,0,2.34,1,7.84,10.31,8.47.78,0,2.88.17,2.88,2.13,0,1.62-1.72,2.58-4.6,2.58a22.67,22.67,0,0,1-8.08-1.57v6.46a37.69,37.69,0,0,0,9.61,1.1c7.94,0,11.49-4.48,11.49-8.92C63,54.32,59,51.05,52.34,50.61Zm43.55-3.16c-6.66.21-10,3.2-10,9.14V68h7.27V58.69c0-3.56.46-5.08,4.68-5.23V47.55A10,10,0,0,0,95.89,47.45Zm-19.54.27a25.43,25.43,0,0,1-4.11,7V40.32l-7.43,1.47V68h7.43V59.88A28.29,28.29,0,0,1,75.46,68h8.9c-.88-3.66-4.73-10.42-4.73-10.42a32.43,32.43,0,0,0,5.22-9.83Zm27.2-1.91A3.56,3.56,0,1,0,100,42.26,3.55,3.55,0,0,0,103.55,45.81Z"/>
</svg>
