<?xml version="1.0"?>
<svg xmlns="http://www.w3.org/2000/svg" id="Layer_1" data-name="Layer 1" viewBox="0 0 169.32 106.97">
  <defs>
    <style>.cls-1{fill:#231f20;}.cls-2{fill:#ed2026;}.cls-3{fill:#f26a21;}.cls-4{fill:#f99f1d;}.cls-5{fill:#fff;fill-rule:evenodd;}</style>
  </defs>
  <title>Payment Methods2</title>
  <path class="cls-1" d="M56.15,80.33a2.69,2.69,0,0,0-.89-.58,2.9,2.9,0,0,0-1.12-.21,3.88,3.88,0,0,0-.67.06,2.78,2.78,0,0,0-.68.2,2.46,2.46,0,0,0-.64.38,2.31,2.31,0,0,0-.52.63,2.65,2.65,0,0,0-1-.93,2.9,2.9,0,0,0-1.4-.34,3.51,3.51,0,0,0-.55,0,2.26,2.26,0,0,0-.56.17,2.14,2.14,0,0,0-.54.32,2.34,2.34,0,0,0-.46.52v-.87H45.65v7.11h1.5V82.9a2.05,2.05,0,0,1,.15-.81,1.71,1.71,0,0,1,.38-.59,1.58,1.58,0,0,1,.56-.36,2,2,0,0,1,.69-.12,1.48,1.48,0,0,1,1.18.48,2,2,0,0,1,.42,1.38v4H52V82.9a2.05,2.05,0,0,1,.15-.81,1.71,1.71,0,0,1,.38-.59,1.58,1.58,0,0,1,.56-.36,2,2,0,0,1,.69-.12A1.48,1.48,0,0,1,55,81.5a2,2,0,0,1,.42,1.38v4h1.51V82.37a3.17,3.17,0,0,0-.2-1.14A2.63,2.63,0,0,0,56.15,80.33Z"/>
  <path class="cls-1" d="M64.1,80.59a2.72,2.72,0,0,0-.92-.76,2.81,2.81,0,0,0-1.31-.29,3.61,3.61,0,0,0-1.4.28,3.57,3.57,0,0,0-1.88,2,4.08,4.08,0,0,0-.28,1.5,4,4,0,0,0,.28,1.5A3.42,3.42,0,0,0,59.35,86a3.35,3.35,0,0,0,1.12.77,3.43,3.43,0,0,0,1.4.28,2.81,2.81,0,0,0,1.31-.28A2.72,2.72,0,0,0,64.1,86v.86h1.55V79.73H64.1ZM64,84.19a2.22,2.22,0,0,1-.44.72,1.89,1.89,0,0,1-.67.47,2.1,2.1,0,0,1-.88.18,2.19,2.19,0,0,1-.9-.18,2.07,2.07,0,0,1-.67-.49,2.29,2.29,0,0,1-.42-.73,2.54,2.54,0,0,1-.15-.88,2.58,2.58,0,0,1,.15-.88,2.14,2.14,0,0,1,.42-.72,1.94,1.94,0,0,1,.67-.49,2,2,0,0,1,.9-.19,2.1,2.1,0,0,1,.88.18,1.79,1.79,0,0,1,.67.48,2,2,0,0,1,.44.72,2.4,2.4,0,0,1,.16.9A2.45,2.45,0,0,1,64,84.19Z"/>
  <path class="cls-1" d="M72.78,83.27A3.9,3.9,0,0,0,71,82.59l-.73-.11-.46-.08a2,2,0,0,1-.37-.13.75.75,0,0,1-.25-.21.48.48,0,0,1-.1-.31.71.71,0,0,1,.36-.62,1.81,1.81,0,0,1,1-.23,3.49,3.49,0,0,1,.65.06,5.62,5.62,0,0,1,.62.15,5.19,5.19,0,0,1,.52.19c.16.08.29.14.4.21l.67-1.21a4.39,4.39,0,0,0-1.3-.55,6.16,6.16,0,0,0-1.58-.2,4.19,4.19,0,0,0-1.22.16,3.1,3.1,0,0,0-.93.45,2,2,0,0,0-.58.72,2.11,2.11,0,0,0-.21,1,1.75,1.75,0,0,0,.62,1.39,3.4,3.4,0,0,0,1.8.69l.74.1a2.38,2.38,0,0,1,.93.28.6.6,0,0,1,.3.5.72.72,0,0,1-.41.64,2.43,2.43,0,0,1-1.21.23,4.58,4.58,0,0,1-.78-.06,3.62,3.62,0,0,1-.63-.16,2.39,2.39,0,0,1-.51-.23,4.32,4.32,0,0,1-.42-.27l-.72,1.16a3.64,3.64,0,0,0,.81.47,5.41,5.41,0,0,0,.83.28,5.9,5.9,0,0,0,.77.13l.64,0a4.73,4.73,0,0,0,1.36-.17,2.84,2.84,0,0,0,1-.48,2,2,0,0,0,.85-1.67A1.71,1.71,0,0,0,72.78,83.27Z"/>
  <path class="cls-1" d="M87.29,80.58a2.93,2.93,0,0,0-1.06-.77,3.34,3.34,0,0,0-1.36-.27,3.68,3.68,0,0,0-1.43.27,3.16,3.16,0,0,0-1.12.77,3.62,3.62,0,0,0-.73,1.18,4.37,4.37,0,0,0-.26,1.52,4.18,4.18,0,0,0,.27,1.54A3.5,3.5,0,0,0,82.35,86a3.32,3.32,0,0,0,1.15.75A3.92,3.92,0,0,0,85,87a5.21,5.21,0,0,0,1.54-.22A3.83,3.83,0,0,0,87.89,86l-.77-1.11a3.41,3.41,0,0,1-1,.56,3.14,3.14,0,0,1-1.07.19,2.48,2.48,0,0,1-.73-.1,2.08,2.08,0,0,1-.63-.32,2,2,0,0,1-.48-.56,2.26,2.26,0,0,1-.28-.83H88.2l0-.28v-.3A4.27,4.27,0,0,0,88,81.76,3.37,3.37,0,0,0,87.29,80.58ZM83,82.67a2.78,2.78,0,0,1,.21-.71,1.8,1.8,0,0,1,.38-.55,1.46,1.46,0,0,1,.55-.36,2,2,0,0,1,.74-.13,1.67,1.67,0,0,1,1.21.46,2.29,2.29,0,0,1,.6,1.29Z"/>
  <path class="cls-1" d="M107.89,80.59a2.63,2.63,0,0,0-.92-.76,2.79,2.79,0,0,0-1.31-.29,3.56,3.56,0,0,0-1.39.28,3.41,3.41,0,0,0-1.13.78,3.53,3.53,0,0,0-.76,1.18,4.08,4.08,0,0,0-.27,1.5,4,4,0,0,0,.27,1.5,3.57,3.57,0,0,0,.76,1.19,3.51,3.51,0,0,0,2.52,1,2.79,2.79,0,0,0,1.31-.28,2.63,2.63,0,0,0,.92-.76v.86h1.55V79.73h-1.55Zm-.06,3.6a2.38,2.38,0,0,1-.43.72,2,2,0,0,1-.68.47,2.05,2.05,0,0,1-.87.18,2,2,0,0,1-1.58-.67,2.29,2.29,0,0,1-.42-.73,2.54,2.54,0,0,1-.15-.88,2.58,2.58,0,0,1,.15-.88,2.14,2.14,0,0,1,.42-.72,2,2,0,0,1,.67-.49,2.23,2.23,0,0,1,1.78,0,1.91,1.91,0,0,1,.68.48,2.16,2.16,0,0,1,.43.72,2.4,2.4,0,0,1,.16.9A2.45,2.45,0,0,1,107.83,84.19Z"/>
  <path class="cls-1" d="M79.43,85.42a2.2,2.2,0,0,1-.74.14,1.23,1.23,0,0,1-.44-.08.77.77,0,0,1-.36-.23,1.17,1.17,0,0,1-.24-.41,1.82,1.82,0,0,1-.09-.61V81.14h2.49V79.73H77.56V77.58H76v2.15H74.59v1.41H76v3.12a2.88,2.88,0,0,0,.67,2.09,2.54,2.54,0,0,0,1.88.67,3.36,3.36,0,0,0,1.22-.21,5,5,0,0,0,.66-.31l-.53-1.3A4,4,0,0,1,79.43,85.42Z"/>
  <path class="cls-1" d="M93.42,79.54a2.86,2.86,0,0,0-1.18.24,2.55,2.55,0,0,0-.88.88v-.93H90v7.11h1.43V82.93a2.47,2.47,0,0,1,.12-.81,1.76,1.76,0,0,1,.35-.6,1.34,1.34,0,0,1,.54-.37,1.65,1.65,0,0,1,.68-.13,2.72,2.72,0,0,1,.61.07l.31.08.46-1.48a2.66,2.66,0,0,0-.38-.1A4.19,4.19,0,0,0,93.42,79.54Z"/>
  <path class="cls-1" d="M115,79.54a2.8,2.8,0,0,0-1.18.24,2.58,2.58,0,0,0-.89.88v-.93h-1.4v7.11h1.42V82.93a2.22,2.22,0,0,1,.13-.81,1.74,1.74,0,0,1,.34-.6,1.34,1.34,0,0,1,.54-.37,1.68,1.68,0,0,1,.68-.13,2.72,2.72,0,0,1,.61.07l.31.08.46-1.48a2.66,2.66,0,0,0-.38-.1A4.16,4.16,0,0,0,115,79.54Z"/>
  <path class="cls-1" d="M122.22,76.84v3.75a2.71,2.71,0,0,0-2.23-1,3.61,3.61,0,0,0-1.4.28,3.48,3.48,0,0,0-1.88,2,3.89,3.89,0,0,0-.28,1.5,3.82,3.82,0,0,0,.28,1.5,3.55,3.55,0,0,0,.75,1.19,3.49,3.49,0,0,0,1.13.77A3.43,3.43,0,0,0,120,87a2.66,2.66,0,0,0,2.23-1v.86h1.55v-10Zm-.06,7.35a2.22,2.22,0,0,1-.44.72,2,2,0,0,1-.67.47,2.29,2.29,0,0,1-1.78,0,2.07,2.07,0,0,1-.67-.49,2.11,2.11,0,0,1-.42-.73,2.54,2.54,0,0,1-.15-.88,2.58,2.58,0,0,1,.15-.88,2,2,0,0,1,.42-.72,1.94,1.94,0,0,1,.67-.49,2,2,0,0,1,.9-.19,2.13,2.13,0,0,1,.88.18,1.88,1.88,0,0,1,.67.48,2,2,0,0,1,.44.72,2.62,2.62,0,0,1,.16.9A2.67,2.67,0,0,1,122.16,84.19Z"/>
  <path class="cls-1" d="M97.13,81.64a2.15,2.15,0,0,1,.71-.47,2.34,2.34,0,0,1,.88-.17h0a2.78,2.78,0,0,1,1,.17,2.51,2.51,0,0,1,.76.45l.74-1.24a3.52,3.52,0,0,0-.94-.55,4,4,0,0,0-1.53-.29,4,4,0,0,0-1.52.29,3.71,3.71,0,0,0-1.21.78,3.62,3.62,0,0,0-.8,1.19,3.79,3.79,0,0,0-.29,1.48,3.84,3.84,0,0,0,.29,1.49,3.58,3.58,0,0,0,2,2,3.78,3.78,0,0,0,1.52.29,3.86,3.86,0,0,0,1.53-.29,3.78,3.78,0,0,0,.94-.54l-.74-1.25a2.51,2.51,0,0,1-.76.45,2.78,2.78,0,0,1-1,.17h0a2.34,2.34,0,0,1-.88-.17,2,2,0,0,1-.71-.47,2.29,2.29,0,0,1-.46-.71,2.6,2.6,0,0,1,0-1.85A2.22,2.22,0,0,1,97.13,81.64Z"/>
  <path class="cls-1" d="M127,85.79a.72.72,0,0,1,.29.06.74.74,0,0,1,.45.67.67.67,0,0,1-.06.28.73.73,0,0,1-.16.23.63.63,0,0,1-.23.16.71.71,0,0,1-.29,0,.73.73,0,0,1-.3,0,.78.78,0,0,1-.24-.16.94.94,0,0,1-.16-.23.87.87,0,0,1,0-.28.82.82,0,0,1,0-.28.79.79,0,0,1,.16-.23.78.78,0,0,1,.24-.16A.73.73,0,0,1,127,85.79ZM127,87a.45.45,0,0,0,.2,0,.46.46,0,0,0,.16-.11.39.39,0,0,0,.11-.17.46.46,0,0,0,0-.2.54.54,0,0,0,0-.21.53.53,0,0,0-.27-.27.45.45,0,0,0-.2,0,.46.46,0,0,0-.21,0,.39.39,0,0,0-.17.11.46.46,0,0,0-.11.16.52.52,0,0,0,0,.21.45.45,0,0,0,0,.2.48.48,0,0,0,.28.28A.46.46,0,0,0,127,87Zm0-.84a.3.3,0,0,1,.2.06.21.21,0,0,1,.07.15.17.17,0,0,1,0,.13.23.23,0,0,1-.14.07l.2.23h-.22l-.18-.22h0v.22h-.18V86.2Zm-.14.15v.12h.2a.06.06,0,0,0,0,0,.05.05,0,0,0,0,0l-.07,0Z"/>
  <path class="cls-2" d="M74.49,46.51a26.72,26.72,0,0,1,10.17-21,26.78,26.78,0,1,0,0,42A26.75,26.75,0,0,1,74.49,46.51Z"/>
  <ellipse class="cls-3" cx="84.66" cy="46.51" rx="10.17" ry="21"/>
  <path class="cls-4" d="M101.27,19.72a26.65,26.65,0,0,0-16.61,5.79,26.77,26.77,0,0,1,0,42,26.78,26.78,0,1,0,16.61-47.79Z"/>
  <path class="cls-5" d="M41.12,66.65a1.17,1.17,0,0,1,1.19-1.12,1.11,1.11,0,0,1,1.12,1.12,1.17,1.17,0,0,1-1.12,1.19,1.23,1.23,0,0,1-1.19-1.19Zm1.19.91a.87.87,0,0,0,.84-.91.81.81,0,0,0-.84-.84.87.87,0,0,0-.91.84.93.93,0,0,0,.91.91Zm-.14-.42h-.28v-1h.42c.14,0,.21,0,.28.07s.14.14.14.21-.07.28-.21.28l.21.42h-.28l-.14-.35h-.14v.35Zm0-.56h.28v-.21h-.28v.21Z"/>
</svg>
