<?xml version="1.0"?>
<svg xmlns="http://www.w3.org/2000/svg" id="Layer_1" data-name="Layer 1" viewBox="0 0 213.74 106.97">
  <defs>
    <style>.cls-1{fill:#ff4521;}</style>
  </defs>
  <title>Payment Methods2</title>
  <path d="M83.35,34.61h3.29V46.44h5.78v2.77H83.35Z"/>
  <path d="M93.45,41.85c0-4.77,2.68-7.5,6.63-7.5s6.62,2.75,6.62,7.5-2.68,7.63-6.62,7.63S93.45,46.62,93.45,41.85Zm9.87,0c0-2.91-1.25-4.66-3.24-4.66s-3.25,1.75-3.25,4.66,1.25,4.79,3.25,4.79S103.32,44.78,103.32,41.85Z"/>
  <path d="M108.76,42c0-4.83,3.21-7.65,6.9-7.65a6.16,6.16,0,0,1,4.39,1.9l-1.75,2.1a3.71,3.71,0,0,0-2.57-1.16c-2,0-3.58,1.77-3.58,4.7s1.38,4.75,3.53,4.75a3.92,3.92,0,0,0,2.85-1.37l1.74,2.06a6,6,0,0,1-4.72,2.15C111.86,49.48,108.76,46.91,108.76,42Z"/>
  <path d="M125.2,34.61h4l4.56,14.6h-3.49l-.9-3.47h-4.45l-.9,3.47h-3.36Zm.36,8.56h3.11l-.33-1.35c-.41-1.45-.81-3.18-1.19-4.7h-.09c-.36,1.55-.74,3.25-1.14,4.7Z"/>
  <path d="M135.32,34.61h3.3V46.44h5.77v2.77h-9.07Z"/>
  <path d="M86.19,60.53h-4V57.76H93.51v2.77h-4V72.35H86.19Z"/>
  <path d="M95.8,57.76h5.26c3.09,0,5.62,1.07,5.62,4.54a4.26,4.26,0,0,1-2.6,4.21l3.32,5.84h-3.7l-2.79-5.26H99.09v5.26H95.8Zm5,6.71c1.73,0,2.67-.74,2.67-2.17s-.94-1.93-2.67-1.93h-1.7v4.1Z"/>
  <path d="M112.06,57.76h4l4.57,14.59h-3.5l-.89-3.47h-4.46l-.89,3.47h-3.36Zm.36,8.55h3.11L115.19,65c-.4-1.46-.8-3.18-1.18-4.71h-.09c-.36,1.55-.74,3.25-1.15,4.71Z"/>
  <path d="M122.18,57.76h3.38L129.37,65l1.43,3.22h.09c-.14-1.54-.4-3.6-.4-5.32V57.76h3.13V72.35h-3.38l-3.81-7.27L125,61.9h-.09c.13,1.61.4,3.56.4,5.28v5.17h-3.13Z"/>
  <path d="M136.13,70.52,138,68.26a6,6,0,0,0,3.61,1.52c1.36,0,2-.54,2-1.41s-.82-1.21-2.1-1.75l-1.9-.8a4.27,4.27,0,0,1-2.94-4c0-2.42,2.15-4.34,5.2-4.34a6.76,6.76,0,0,1,4.7,1.92l-1.68,2.09a4.73,4.73,0,0,0-3-1.17c-1.14,0-1.86.49-1.86,1.32s1,1.21,2.22,1.73l1.88.76a4,4,0,0,1,2.88,4c0,2.42-2,4.52-5.5,4.52A8,8,0,0,1,136.13,70.52Z"/>
  <path d="M149.52,57.76h9.21v2.77h-5.92v3.38h5.06v2.78h-5.06v5.66h-3.29Z"/>
  <path d="M161.26,57.76h9.13v2.77h-5.84v2.94h5v2.75h-5v3.36h6.07v2.77h-9.36Z"/>
  <path d="M173.53,57.76h5.26c3.09,0,5.62,1.07,5.62,4.54a4.26,4.26,0,0,1-2.6,4.21l3.32,5.84h-3.7l-2.8-5.26h-1.81v5.26h-3.29Zm5,6.71c1.73,0,2.67-.74,2.67-2.17s-.94-1.93-2.67-1.93h-1.7v4.1Z"/>
  <path d="M186,70.52l1.88-2.26a6,6,0,0,0,3.61,1.52c1.36,0,2-.54,2-1.41s-.83-1.21-2.11-1.75l-1.9-.8a4.27,4.27,0,0,1-2.94-4c0-2.42,2.15-4.34,5.2-4.34a6.76,6.76,0,0,1,4.7,1.92L194.8,61.5a4.73,4.73,0,0,0-3-1.17c-1.14,0-1.86.49-1.86,1.32s1,1.21,2.22,1.73l1.88.76a4,4,0,0,1,2.89,4c0,2.42-2,4.52-5.51,4.52A8,8,0,0,1,186,70.52Z"/>
  <path class="cls-1" d="M64.38,58.1l2.15,11.13L63.38,66.9A14.39,14.39,0,0,1,46,71a14.4,14.4,0,0,0,12.91-5.9l-3.8-.5Z"/>
  <path class="cls-1" d="M17.55,65.92a.71.71,0,0,1-.71-.72h0a.72.72,0,0,1,.71-.72h32a.72.72,0,0,1,.71.72h0a.71.71,0,0,1-.71.72h-32Z"/>
  <path class="cls-1" d="M17.55,62.61a.71.71,0,0,1-.71-.72h0a.71.71,0,0,1,.71-.71h32a.71.71,0,0,1,.71.71h0a.71.71,0,0,1-.71.72h-32Z"/>
  <path class="cls-1" d="M48.94,43.55l-15-6.38a1,1,0,0,0-.79,0l-15,6.38a1,1,0,0,0-.59,1.12,1,1,0,0,0,1,.8h30a1,1,0,0,0,1-.8A1,1,0,0,0,48.94,43.55Z"/>
  <rect class="cls-1" x="21.1" y="47.9" width="5.96" height="13.79"/>
  <rect class="cls-1" x="30.48" y="47.9" width="5.96" height="13.79"/>
  <rect class="cls-1" x="39.86" y="47.9" width="5.96" height="13.79"/>
  <path class="cls-1" d="M51,54.67a.48.48,0,0,1-.48-.47h0a.48.48,0,0,1,.48-.48H72.23a.47.47,0,0,1,.47.48h0a.47.47,0,0,1-.47.47H51Z"/>
  <path class="cls-1" d="M51,52.47a.48.48,0,0,1-.48-.48h0a.48.48,0,0,1,.48-.47H72.23a.47.47,0,0,1,.47.47h0a.47.47,0,0,1-.47.48H51Z"/>
  <path class="cls-1" d="M71.84,39.78l-10-4.24a.67.67,0,0,0-.52,0l-10,4.24a.68.68,0,0,0-.39.75.66.66,0,0,0,.65.53h20a.66.66,0,0,0,.26-1.28Z"/>
  <rect class="cls-1" x="53.31" y="42.68" width="3.96" height="9.18"/>
  <rect class="cls-1" x="59.55" y="42.68" width="3.96" height="9.18"/>
  <rect class="cls-1" x="65.79" y="42.68" width="3.96" height="9.18"/>
</svg>
