<?xml version="1.0"?>
<svg xmlns="http://www.w3.org/2000/svg" id="Layer_1" data-name="Layer 1" viewBox="0 0 169.32 106.97">
  <defs>
    <style>.cls-1{fill:#0058a0;}.cls-2{fill:#faa61a;}</style>
  </defs>
  <title>Payment Methods2</title>
  <polygon class="cls-1" points="71.49 66.76 76 40.28 83.22 40.28 78.71 66.76 71.49 66.76"/>
  <path class="cls-1" d="M104.88,40.93a18.8,18.8,0,0,0-6.47-1.11c-7.13,0-12.15,3.59-12.19,8.74,0,3.8,3.58,5.92,6.32,7.19s3.75,2.13,3.74,3.28c0,1.78-2.24,2.59-4.32,2.59a15.09,15.09,0,0,1-6.79-1.39l-.93-.42-1,5.93a22.94,22.94,0,0,0,8,1.41c7.59,0,12.51-3.55,12.57-9.05,0-3-1.89-5.3-6.06-7.19-2.52-1.22-4.07-2-4-3.28s1.31-2.28,4.13-2.28a13.36,13.36,0,0,1,5.4,1l.65.31,1-5.74"/>
  <path class="cls-1" d="M123.38,40.31h-5.57c-1.73,0-3,.47-3.78,2.19L103.31,66.76h7.58s1.24-3.26,1.52-4h9.24c.22.92.88,4,.88,4h6.7l-5.85-26.45m-8.89,17.06,2.87-7.4c0,.07.59-1.53,1-2.53l.49,2.29,1.67,7.64Z"/>
  <path class="cls-1" d="M65.44,40.3,58.38,58.35l-.76-3.67c-1.31-4.22-5.41-8.81-10-11.1l6.46,23.15h7.63L73.08,40.3H65.44"/>
  <path class="cls-2" d="M51.82,40.28H40.18l-.09.55c9.06,2.2,15,7.49,17.53,13.85L55.09,42.52c-.43-1.68-1.7-2.18-3.27-2.24"/>
</svg>
