<?xml version="1.0"?>
<svg xmlns="http://www.w3.org/2000/svg" id="Layer_1" data-name="Layer 1" viewBox="0 0 169.32 106.97">
  <defs>
    <style>.cls-1{fill:#8fc641;}</style>
  </defs>
  <title>Payment Methods2</title>
  <path class="cls-1" d="M140.27,51.56a6,6,0,0,1-3.46.81h-1.54L136.45,46h1.13a5.24,5.24,0,0,1,2.87.63,2.48,2.48,0,0,1,1.11,2.22,3.11,3.11,0,0,1-1.29,2.71m-91.75,8H36.62l.77-4.16h7.46l.85-4.69H38.31L39,46.58H50.9ZM146.68,43c-1.75-1.2-4.39-1.8-7.87-1.8h-9.09l-3.38,18.35H114.43l.76-4.16h7.18l.85-4.68h-7.17l.77-4.14h7.39l1-5.38h-15L107,58.61h-5.51L104.7,41.2H96.85L93.64,58.61H88.27L91.51,41.2H83.67L80.28,59.55h-12L69,55.39h7.21l.84-4.65H69.9l.76-4.15h7.47l1-5.38H32.34L29.68,55.74,24.37,41.2H16.23L11.85,64.93h7.78L22.28,50l5.15,14.94H55.29l3.38-18.35H63L59.65,64.93H133l2.13-11.58,3.44,11.58h7.78l-3.57-9.46.82-.18a6.92,6.92,0,0,0,4.16-2.45,7.55,7.55,0,0,0,1.48-4.78A5.68,5.68,0,0,0,146.68,43"/>
  <path class="cls-1" d="M153.09,62.13l1.06-.06a1.42,1.42,0,0,0,.53-.1.55.55,0,0,0,.28-.24.62.62,0,0,0,.08-.33.55.55,0,0,0-.22-.43.89.89,0,0,0-.61-.14l-1.18.06Zm-.39,2.1-.19-3.73,1.66-.08a2.09,2.09,0,0,1,.76.06.83.83,0,0,1,.43.33,1,1,0,0,1,.18.56.92.92,0,0,1-.22.68,1.31,1.31,0,0,1-.77.39,1,1,0,0,1,.3.17,2.22,2.22,0,0,1,.44.47l.7,1-.62,0-.53-.75c-.16-.22-.29-.39-.39-.5a.93.93,0,0,0-.26-.24.92.92,0,0,0-.23-.09,1.26,1.26,0,0,0-.28,0l-.57,0,.09,1.66Z"/>
  <path class="cls-1" d="M151.08,62.43a2.9,2.9,0,0,1,5.79-.3v.15a2.9,2.9,0,0,1-5.79.15m2.72-3.64a3.49,3.49,0,1,0,3.66,3.31h0a3.5,3.5,0,0,0-3.66-3.31"/>
</svg>
