<?xml version="1.0"?>
<svg xmlns="http://www.w3.org/2000/svg" id="Layer_1" data-name="Layer 1" viewBox="0 0 169.32 106.97">
  <defs>
    <style>.cls-1{fill:#009ddd;}.cls-1,.cls-2,.cls-3,.cls-4{fill-rule:evenodd;}.cls-2{fill:#ed1b2e;}.cls-3{fill:#003473;}.cls-4{fill:#fff;}</style>
  </defs>
  <title>Payment Methods2</title>
  <path class="cls-1" d="M84.66,72.81A26.06,26.06,0,1,0,67.2,79.55a25.95,25.95,0,0,0,17.46-6.74Z"/>
  <path class="cls-1" d="M84.66,72.81a26.05,26.05,0,0,0,0-38.65V72.81Z"/>
  <path class="cls-2" d="M102.17,27.42a26,26,0,0,0-17.51,6.74,32.27,32.27,0,0,0-2.6,2.76h5.25c.72.87,1.38,1.84,2,2.75H80.06q-.84,1.38-1.53,2.76H90.79c.4.92.81,1.84,1.12,2.76H77.46A25.82,25.82,0,0,0,76.69,48h16a27.37,27.37,0,0,1,.57,5.51,26.14,26.14,0,0,1-1.33,8.27H77.46c.31.92.66,1.84,1.07,2.76H90.79a26,26,0,0,1-1.49,2.75H80.06a27.76,27.76,0,0,0,2,2.76h5.25a26.46,26.46,0,0,1-2.65,2.76,26.06,26.06,0,1,0,17.51-45.39Z"/>
  <polygon class="cls-3" points="63.12 60.76 59.85 60.76 61.79 50.6 57.35 60.76 54.59 60.76 54.03 50.65 51.88 60.76 48.92 60.76 51.42 47.54 56.58 47.54 56.63 55.7 60.2 47.54 65.67 47.54 63.12 60.76 63.12 60.76"/>
  <path class="cls-3" d="M99.36,60.61A8.37,8.37,0,0,1,97,61c-1.63,0-2.55-.81-2.55-2.35a6.25,6.25,0,0,1,.1-1l.21-1.08.15-.81,1.48-8.22h3.22L99.16,50h1.63l-.41,2.6H98.7l-.87,4.49c0,.21,0,.36,0,.46,0,.56.36.77,1.12.77a2.16,2.16,0,0,0,.87-.1l-.41,2.4Z"/>
  <path class="cls-3" d="M86.5,53.41c0,1.33.76,2.3,2.45,3,1.38.56,1.58.71,1.58,1.22,0,.67-.61,1-1.89,1a10.07,10.07,0,0,1-3-.46l-.46,2.51h.15l.62.1a3.35,3.35,0,0,0,.86.1c.77,0,1.38.1,1.79.1,3.47,0,5.06-1.12,5.06-3.57,0-1.48-.67-2.35-2.3-3-1.38-.51-1.53-.67-1.53-1.18s.56-.87,1.58-.87a22.39,22.39,0,0,1,2.4.16L94.31,50a19,19,0,0,0-2.91-.26c-3.68,0-5,1.69-4.9,3.68Z"/>
  <path class="cls-3" d="M73.63,60.76h-2.7l0-1.12a4.46,4.46,0,0,1-3.42,1.27,2.8,2.8,0,0,1-3-2.91c0-2.6,2.09-4.13,5.71-4.13a13.23,13.23,0,0,1,1.33.05,2.1,2.1,0,0,0,.1-.67c0-.71-.56-1-2.09-1a13.88,13.88,0,0,0-2.66.31l-.45.15-.31.05.46-2.4a13.66,13.66,0,0,1,3.88-.61c2.81,0,4.29,1.13,4.29,3.17A9.06,9.06,0,0,1,74.55,55l-.66,3.78-.11.71-.1.57-.05.35v.31ZM71.44,56a4.53,4.53,0,0,0-.77-.05c-1.84,0-2.76.56-2.76,1.63a1,1,0,0,0,1.18,1.07A2.45,2.45,0,0,0,71.44,56Z"/>
  <path class="cls-3" d="M84.25,60.5a11.68,11.68,0,0,1-3.32.46c-3.62,0-5.51-1.68-5.51-4.85,0-3.67,2.4-6.38,5.67-6.38,2.7,0,4.39,1.53,4.39,3.88a9.38,9.38,0,0,1-.41,2.66H78.63a1.13,1.13,0,0,0,0,.35c0,1.23,1,1.89,2.86,1.89a8,8,0,0,0,3.37-.71l-.56,2.7Zm-1.53-6.38v-.56c0-.87-.56-1.38-1.53-1.38a2.18,2.18,0,0,0-2.1,1.94Z"/>
  <path class="cls-3" d="M118.86,55.86c-.46,3.57-3,5.15-6.28,5.15-3.67,0-5.15-2.19-5.15-4.95a6,6,0,0,1,6.38-6.38c3.37,0,5.16,2.15,5.16,4.85a5.24,5.24,0,0,1-.11,1.33Zm-3.26-1.28c0-1.12-.46-2.19-1.79-2.19-1.63,0-2.71,2-2.71,3.67,0,1.48.72,2.45,1.89,2.45a3.21,3.21,0,0,0,2.5-2.65,8,8,0,0,0,.11-1.28Z"/>
  <path class="cls-4" d="M119.22,59.13a.85.85,0,0,1,.87-.82.81.81,0,0,1,.82.82.85.85,0,0,1-.82.86.9.9,0,0,1-.87-.86Zm.87.66a.63.63,0,0,0,.61-.66.59.59,0,0,0-.61-.62.63.63,0,0,0-.66.62.67.67,0,0,0,.66.66Zm-.1-.31h-.21v-.71h.31c.1,0,.15,0,.2,0s.11.1.11.15-.06.21-.16.21l.16.3h-.21l-.1-.25H120v.25Zm0-.41h.2v-.15H120v.15Z"/>
  <polygon class="cls-4" points="63.93 59.99 60.66 59.99 62.6 49.83 58.16 59.99 55.2 59.99 54.69 49.88 52.75 59.99 49.79 59.99 52.29 46.77 57.4 46.77 57.65 54.94 61.23 46.77 66.48 46.77 63.93 59.99 63.93 59.99"/>
  <path class="cls-4" d="M100.18,59.84a8.06,8.06,0,0,1-2.35.36c-1.63,0-2.55-.82-2.55-2.35a7.1,7.1,0,0,1,.1-1l.2-1.07.16-.82,1.48-8.22h3.21L100,49.22h1.69l-.46,2.61H99.52l-.82,4.49a2.6,2.6,0,0,0-.1.46c0,.56.35.81,1.12.81a3.78,3.78,0,0,0,.87-.1l-.41,2.35Z"/>
  <path class="cls-3" d="M108.5,52.34l0-.36.61-1.69c-.15,0-.2,0-.25,0a.63.63,0,0,1-.26-.05h-.31c-1.07,0-1.83.46-2.85,1.74l.35-1.94h-3.37l-2,10.77h3.22c.46-2.5.66-3.88.92-5,.41-1.94,1.84-2.81,2.91-2.61a1.06,1.06,0,0,1,.36,0l.2.1.51-.91Z"/>
  <path class="cls-4" d="M109.62,49.32a.86.86,0,0,0-.35-.1c-.16,0-.26,0-.26-.1h-.36c-1.07,0-1.83.46-2.8,1.74l.3-1.64h-3L101.2,60h3.27c1.17-6.58,1.63-7.76,3.21-7.76.11,0,.26.05.41.05l.36.11,1.17-3.07Z"/>
  <path class="cls-4" d="M87.31,52.64c0,1.33.77,2.3,2.51,3,1.32.56,1.53.72,1.53,1.23,0,.66-.62,1-1.89,1a10.32,10.32,0,0,1-3-.46l-.41,2.5h.15l.56.15c.21,0,.51,0,.87,0a12.22,12.22,0,0,0,1.84.11c3.42,0,5-1.13,5-3.58,0-1.48-.66-2.35-2.35-3-1.37-.51-1.53-.66-1.53-1.17s.56-.87,1.64-.87a21.3,21.3,0,0,1,2.35.15l.45-2.45a19.55,19.55,0,0,0-2.85-.2c-3.68,0-5,1.63-5,3.62Z"/>
  <path class="cls-4" d="M74.45,60H71.79l0-1.12a4.41,4.41,0,0,1-3.42,1.28,2.81,2.81,0,0,1-3-2.91c0-2.61,2.1-4.14,5.72-4.14a13.23,13.23,0,0,1,1.33,0,2,2,0,0,0,.1-.66c0-.72-.56-1-2.09-1a14.15,14.15,0,0,0-2.66.25l-.46.16-.3,0,.46-2.4A14.65,14.65,0,0,1,71.44,49c2.8,0,4.23,1.07,4.23,3.11a11.72,11.72,0,0,1-.25,2.15l-.67,3.82-.1.67-.1.56,0,.36,0,.3Zm-2.35-4.8a4.25,4.25,0,0,0-.71,0c-1.84,0-2.76.57-2.76,1.64a1,1,0,0,0,1.12,1.12,2.5,2.5,0,0,0,2.35-2.71Z"/>
  <path class="cls-4" d="M85.12,59.74a12.66,12.66,0,0,1-3.32.46c-3.62,0-5.51-1.69-5.51-4.85,0-3.68,2.4-6.38,5.66-6.38,2.66,0,4.34,1.53,4.34,3.88a11.11,11.11,0,0,1-.35,2.65H79.45v.36c0,1.22.92,1.89,2.81,1.89a8.62,8.62,0,0,0,3.37-.67l-.51,2.66Zm-1.74-6.38V52.8c0-.87-.56-1.38-1.53-1.38s-1.73.71-2,1.94Z"/>
  <path class="cls-4" d="M119.73,55.09c-.51,3.58-3,5.16-6.33,5.16-3.62,0-5.1-2.2-5.1-5a6,6,0,0,1,6.38-6.38c3.37,0,5.15,2.14,5.15,4.85a5.66,5.66,0,0,1-.1,1.32Zm-3.37-1.38c0-1.12-.46-2.14-1.78-2.14-1.64,0-2.66,1.94-2.66,3.68,0,1.43.72,2.4,1.84,2.4a3.18,3.18,0,0,0,2.5-2.61,5.75,5.75,0,0,0,.1-1.33Z"/>
</svg>
